<svg width="23" height="23" viewBox="0 0 23 23" fill="none" xmlns="http://www.w3.org/2000/svg">
<path d="M21.1893 4.66931C20.4746 3.95456 20.8558 3.5734 20.141 2.85865C19.4264 2.14399 19.0452 2.52519 18.3305 1.81053C17.6159 1.09587 17.997 0.714662 17.2824 0L17.2176 0.0647773C15.6387 1.64365 15.6387 4.20352 17.2176 5.78239C18.7965 7.36126 21.3563 7.36126 22.9352 5.78239L23 5.71761C22.2852 5.00295 21.9041 5.38407 21.1893 4.66931Z" fill="white"/>
<path d="M5.78239 17.2176C4.20352 15.6388 1.64365 15.6388 0.0647773 17.2177L0 17.2824C0.714662 17.9971 1.09582 17.6159 1.81053 18.3306C2.52519 19.0452 2.14399 19.4264 2.85865 20.141C3.5734 20.8558 3.95456 20.4746 4.66931 21.1893C5.38407 21.9041 5.0029 22.2852 5.71761 23L5.78239 22.9352C7.36126 21.3564 7.36126 18.7965 5.78239 17.2176Z" fill="white"/>
<path d="M16.2647 6.73539C14.4358 4.90644 11.8171 4.34914 9.5065 5.06255C11.7167 7.35222 11.9471 9.42235 12.1697 11.4257C12.3809 13.3264 12.5804 15.1216 14.597 17.1383L14.8225 17.3638C15.3387 17.0709 15.8246 16.7048 16.2647 16.2648C18.8962 13.6332 18.8962 9.36683 16.2647 6.73539Z" fill="white"/>
<path d="M10.8303 11.5744C10.6191 9.67374 10.4196 7.87848 8.40296 5.86175L8.17754 5.63629C7.66135 5.92918 7.17538 6.29525 6.73533 6.73531C4.10385 9.36678 4.10385 13.6332 6.73533 16.2647C8.56428 18.0936 11.1829 18.6509 13.4935 17.9375C11.2833 15.6479 11.0529 13.5777 10.8303 11.5744Z" fill="white"/>
</svg>
