<svg width="25" height="25" viewBox="0 0 25 25" fill="none" xmlns="http://www.w3.org/2000/svg">
<g clip-path="url(#clip0)">
<path d="M25 4.16663H0V20.8335H25V4.16663Z" fill="#F0F0F0"/>
<path d="M14.0625 4.16656H10.9375V10.9374H0V14.0624H10.9375V20.8332H14.0625V14.0624H25V10.9374H14.0625V4.16656Z" fill="#D80027"/>
<path d="M19.2278 15.3983L25 18.6051V15.3983H19.2278Z" fill="#0052B4"/>
<path d="M15.2173 15.3983L24.9999 20.833V19.2962L17.9836 15.3983H15.2173Z" fill="#0052B4"/>
<path d="M22.3941 20.833L15.2173 16.8455V20.833H22.3941Z" fill="#0052B4"/>
<path d="M15.2173 15.3983L24.9999 20.833V19.2962L17.9836 15.3983H15.2173Z" fill="#F0F0F0"/>
<path d="M15.2173 15.3983L24.9999 20.833V19.2962L17.9836 15.3983H15.2173Z" fill="#D80027"/>
<path d="M4.41118 15.3982L0 17.8489V15.3982H4.41118Z" fill="#0052B4"/>
<path d="M9.7826 16.0893V20.833H1.24466L9.7826 16.0893Z" fill="#0052B4"/>
<path d="M7.01626 15.3983L0 19.2962V20.833L9.78262 15.3983H7.01626Z" fill="#D80027"/>
<path d="M5.77222 9.60125L0 6.39441V9.60125H5.77222Z" fill="#0052B4"/>
<path d="M9.78262 9.60133L0 4.16656V5.70338L7.01626 9.60133H9.78262Z" fill="#0052B4"/>
<path d="M2.60579 4.16656L9.78265 8.15407V4.16656H2.60579Z" fill="#0052B4"/>
<path d="M9.78262 9.60133L0 4.16656V5.70338L7.01626 9.60133H9.78262Z" fill="#F0F0F0"/>
<path d="M9.78262 9.60133L0 4.16656V5.70338L7.01626 9.60133H9.78262Z" fill="#D80027"/>
<path d="M20.5888 9.60147L25 7.15079V9.60147H20.5888Z" fill="#0052B4"/>
<path d="M15.2173 8.91029V4.1666H23.7552L15.2173 8.91029Z" fill="#0052B4"/>
<path d="M17.9836 9.60133L24.9999 5.70338V4.16656L15.2173 9.60133H17.9836Z" fill="#D80027"/>
</g>
<defs>
<clipPath id="clip0">
<rect width="25" height="25" fill="white"/>
</clipPath>
</defs>
</svg>
