<svg width="18" height="21" viewBox="0 0 18 21" fill="none" xmlns="http://www.w3.org/2000/svg">
<path d="M18 17V18H0V17L2 15V8.99998C2 5.89998 4.03 3.16998 7 2.28998C7 2.18998 7 2.09998 7 1.99998C7 1.46955 7.21071 0.960844 7.58579 0.585771C7.96086 0.210698 8.46957 -1.52588e-05 9 -1.52588e-05C9.53043 -1.52588e-05 10.0391 0.210698 10.4142 0.585771C10.7893 0.960844 11 1.46955 11 1.99998C11 2.09998 11 2.18998 11 2.28998C13.97 3.16998 16 5.89998 16 8.99998V15L18 17ZM11 19C11 19.5304 10.7893 20.0391 10.4142 20.4142C10.0391 20.7893 9.53043 21 9 21C8.46957 21 7.96086 20.7893 7.58579 20.4142C7.21071 20.0391 7 19.5304 7 19" fill="white"/>
</svg>
