<svg width="16" height="16" viewBox="0 0 16 16" fill="none" xmlns="http://www.w3.org/2000/svg">
<path d="M8 1.52588e-05C9.06086 1.52588e-05 10.0783 0.421442 10.8284 1.17159C11.5786 1.92173 12 2.93915 12 4.00002C12 5.06088 11.5786 6.0783 10.8284 6.82844C10.0783 7.57859 9.06086 8.00001 8 8.00001C6.93913 8.00001 5.92172 7.57859 5.17157 6.82844C4.42143 6.0783 4 5.06088 4 4.00002C4 2.93915 4.42143 1.92173 5.17157 1.17159C5.92172 0.421442 6.93913 1.52588e-05 8 1.52588e-05ZM8 10C12.42 10 16 11.79 16 14V16H0V14C0 11.79 3.58 10 8 10Z" fill="white"/>
</svg>
